<mxfile host="65bd71144e">
    <diagram id="qYiinhZvGaY0mAuEnxJ3" name="PÃ¡gina-1">
        <mxGraphModel dx="783" dy="736" grid="1" gridSize="10" guides="1" tooltips="1" connect="1" arrows="1" fold="1" page="1" pageScale="1" pageWidth="827" pageHeight="1169" math="0" shadow="0">
            <root>
                <mxCell id="0"/>
                <mxCell id="1" parent="0"/>
                <mxCell id="2" value="&lt;font style=&quot;font-size: 20px;&quot;&gt;DB&lt;/font&gt;" style="shape=cylinder3;whiteSpace=wrap;html=1;boundedLbl=1;backgroundOutline=1;size=15;" vertex="1" parent="1">
                    <mxGeometry x="160" y="290" width="60" height="80" as="geometry"/>
                </mxCell>
                <mxCell id="3" value="Ordenadores" style="rounded=1;whiteSpace=wrap;html=1;fontSize=20;" vertex="1" parent="1">
                    <mxGeometry x="360" y="230" width="130" height="44" as="geometry"/>
                </mxCell>
                <mxCell id="4" value="Clientes" style="rounded=1;whiteSpace=wrap;html=1;fontSize=20;" vertex="1" parent="1">
                    <mxGeometry x="360" y="290" width="130" height="44" as="geometry"/>
                </mxCell>
                <mxCell id="5" value="Administradores" style="rounded=1;whiteSpace=wrap;html=1;fontSize=20;" vertex="1" parent="1">
                    <mxGeometry x="360" y="345" width="170" height="35" as="geometry"/>
                </mxCell>
                <mxCell id="6" value="Recambios" style="rounded=1;whiteSpace=wrap;html=1;fontSize=20;" vertex="1" parent="1">
                    <mxGeometry x="360" y="390" width="150" height="37" as="geometry"/>
                </mxCell>
            </root>
        </mxGraphModel>
    </diagram>
</mxfile>